<svg width="84" height="90" viewBox="0 0 84 90" fill="none" xmlns="http://www.w3.org/2000/svg">
<path d="M9.26471 9.64706C9.26471 5.78107 12.3987 2.64706 16.2647 2.64706H67.1177C70.9836 2.64706 74.1177 5.78107 74.1177 9.64706V76.0025C74.1177 81.7703 67.5399 85.0214 62.7901 81.7491C46.2035 70.3218 38.0602 69.2939 20.8978 81.196C16.0736 84.5415 9.26471 81.2997 9.26471 75.429L9.26471 9.64706Z" fill="url(#paint0_linear_28_85)" fill-opacity="0.95"/>
<rect width="83.3824" height="14.5588" rx="7.27941" fill="url(#paint1_linear_28_85)"/>
<path d="M37.2803 26.5098C37.7718 25.9681 38.9185 24.5515 39.8604 23.3848V23.3431C40.7613 22.1765 41.6214 21.1765 41.7033 21.1765C41.8261 21.1765 42.8909 22.5098 44.0376 24.0931C45.8395 26.5515 46.5357 27.1765 48.2558 27.8015C49.3615 28.2598 50.8358 28.7598 51.4911 28.9681C52.1463 29.1348 52.7606 29.5931 52.8835 29.9265C53.0063 30.2598 52.9244 30.7598 52.7196 31.0098C52.5149 31.2598 51.6549 32.4681 50.8358 33.7181C49.3615 35.8848 49.3205 36.0931 49.2796 39.5931C49.2796 42.0931 49.1158 43.3431 48.7472 43.5098C48.5015 43.6348 47.0272 43.3431 45.471 42.8848C43.9557 42.3848 42.2357 42.0098 41.6214 42.0098C40.9661 42.0098 39.3689 42.3848 38.0175 42.8431C36.666 43.3015 35.2327 43.6765 34.8641 43.6765C34.2089 43.6765 34.127 43.2181 34.127 35.9681L32.2841 33.2598C31.2602 31.7598 30.4412 30.2598 30.4412 29.9265C30.4412 29.5098 31.465 28.9681 33.3898 28.3848C35.0279 27.8848 36.7889 27.0098 37.2803 26.5098Z" fill="white"/>
<defs>
<linearGradient id="paint0_linear_28_85" x1="15.2206" y1="63.5294" x2="90.6618" y2="35.0735" gradientUnits="userSpaceOnUse">
<stop stop-color="#FB8E56"/>
<stop offset="1" stop-color="#FFA889"/>
</linearGradient>
<linearGradient id="paint1_linear_28_85" x1="15.8824" y1="6.61765" x2="69.4853" y2="6.61765" gradientUnits="userSpaceOnUse">
<stop stop-color="#F8D9BC"/>
<stop offset="1" stop-color="#FA9C6B"/>
</linearGradient>
</defs>
</svg>
