<svg width="92" height="89" viewBox="0 0 92 89" fill="none" xmlns="http://www.w3.org/2000/svg">
<path d="M22.3393 4.78249C24.29 3.52394 27.1847 1.88783 28.8837 1.25855C30.5198 0.566347 32.2818 0 32.7852 0C33.2886 0 34.9248 0.692203 36.435 1.51026C37.8824 2.39125 39.3926 3.6498 39.7072 4.342C40.0848 5.0342 41.4692 5.91519 43.0424 6.35568C44.4897 6.73324 46.3146 6.98495 47.1327 6.98495C47.8878 6.92203 49.3352 6.35568 50.342 5.7264C51.4118 5.16006 52.7332 3.96443 53.3625 3.14638C53.9918 2.26539 55.4391 1.19562 56.5718 0.75513C58.2709 0.0629275 59.0889 0.0629275 61.606 0.880985C63.2421 1.38441 66.9549 3.2093 69.9124 4.97127C72.87 6.73324 76.0164 9.06156 77.0233 10.1943C78.4077 11.7674 78.7223 12.6484 78.4706 14.4104C78.3447 15.606 77.9042 17.8714 77.5267 19.4446C77.0862 21.0178 76.9603 22.9685 77.1491 23.8495C77.275 24.7305 78.2189 26.1778 79.1628 27.0588C80.1696 28.0027 81.617 29.0725 82.498 29.5759C83.3789 30.0164 85.2038 30.5198 86.5882 30.7086C88.6648 31.0233 89.2941 31.4638 90.4897 33.6033C91.7483 35.7428 91.9371 37.1272 92 43.0424C92 46.8181 91.7483 51.0971 91.4337 52.4815C91.0561 53.8659 90.1751 55.6279 89.4829 56.446C88.7278 57.3899 87.2175 58.0821 85.5185 58.3338C83.5677 58.6484 82.0575 59.4036 80.1067 61.2914C78.0301 63.2421 77.275 64.3748 77.0233 66.3256C76.8345 67.8358 77.1491 69.9754 77.7155 71.6744C78.2818 73.2476 78.7223 74.9467 78.7223 75.4501C78.7223 75.9535 77.9042 77.275 76.9603 78.3447C76.0164 79.4145 74.2544 80.9877 73.0588 81.8687C71.8632 82.7497 68.8427 84.4487 66.4514 85.7702C63.0533 87.5322 61.2914 88.0356 58.9001 88.0356C56.0055 88.0356 55.565 87.8468 50.0903 82.2462L45.4966 82.498L45.4826 82.4985C40.9657 82.6867 40.9006 82.6895 38.7004 85.3297C36.6867 87.9097 36.3721 88.0356 33.2886 88.0356C30.8345 88.0356 28.8208 87.4692 25.8632 86.0219C23.5978 84.9521 20.1368 82.8126 18.186 81.3023C16.1724 79.7921 14.2216 77.9672 13.844 77.1491C13.4036 76.394 13.2777 74.8208 13.5294 73.5622C13.7811 72.3666 14.1587 69.7866 14.2845 67.8988C14.5363 65.6334 14.3475 63.9343 13.7811 62.9904C13.3406 62.1724 11.7674 60.8509 10.3201 59.9699C8.80985 59.1519 6.8591 58.4597 5.91518 58.4597C4.78249 58.4597 3.52394 57.8304 2.5171 56.7606C1.25855 55.4391 0.692202 54.0547 0.377565 51.223C0.125855 49.1464 0 45.0561 0 42.0985C0.0629275 37.8824 0.377565 36.1204 1.51026 33.9179C2.70588 31.4008 3.2093 31.0233 5.60055 30.6457C7.04788 30.3311 9.3762 29.3871 10.8235 28.3803C12.4596 27.3105 13.6553 25.8003 14.2845 24.1642C15.1655 21.8988 15.1655 21.3324 14.2216 17.8714C13.1518 14.2216 13.1518 13.9699 14.2845 11.5787C14.9767 10.2572 16.2353 8.684 17.1163 8.11765C17.9973 7.61423 20.3885 6.10397 22.3393 4.78249Z" fill="#5C7381"/>
<path d="M25.5486 13.907C25.8632 13.5294 27.2476 12.7114 28.5062 12.0192C29.8906 11.327 31.5267 10.8865 32.2818 11.0753C33.0999 11.264 34.4213 12.0821 35.3023 12.8372C36.1833 13.5924 37.5677 14.5992 38.4487 15.1026C39.3297 15.5431 41.2804 16.1095 42.8536 16.3612C44.4268 16.6129 47.3215 16.55 49.2722 16.2353C51.8523 15.8578 54.0547 14.9138 56.6977 13.1519C59.9699 10.9494 60.725 10.6977 62.1724 11.264C63.1792 11.5787 64.6895 12.5855 65.6334 13.4665C67.3324 14.9768 67.3954 15.2914 67.3954 26.9959L70.5417 31.2121C72.7442 34.2955 74.5691 35.9946 76.9603 37.316C78.7852 38.3229 80.7989 39.5814 81.4282 40.1478C82.1833 40.84 82.5609 42.0985 82.5609 44.301C82.4979 46.5664 82.1833 47.8249 81.2394 48.8318C80.5472 49.6498 79.2257 50.4679 78.2189 50.6567C77.275 50.9084 75.1354 52.3557 73.4993 53.9918C71.7374 55.6279 69.7866 58.3338 68.9056 60.3475C67.71 62.9905 67.3954 64.8783 67.3954 68.3393C67.3954 70.8564 67.2066 73.3735 66.8919 73.9398C66.6402 74.5062 65.6334 75.3872 64.5636 75.8277C63.4938 76.3311 62.2353 77.0233 61.7319 77.4009C60.9767 77.9672 60.0958 77.7155 57.6416 76.1423C55.8796 75.0725 52.7962 73.6252 50.7196 72.933C47.4473 71.8003 46.4405 71.7374 43.1683 72.3667C41.0917 72.7442 38.7004 73.4364 37.8194 73.8769C36.9384 74.3174 35.6799 75.3242 34.9877 76.0164C34.1696 76.8974 32.974 77.4009 31.5267 77.3379C30.3311 77.3379 28.632 76.8974 27.751 76.3311C26.87 75.7647 25.8003 74.8208 25.3598 74.2545C24.9193 73.6881 24.6047 71.5486 24.6047 69.1574C24.6047 66.5144 24.1642 63.8085 23.2832 61.6061C22.591 59.7182 21.4583 57.327 20.829 56.2572C20.2627 55.1874 18.6265 53.6772 17.3051 52.8591C15.9207 51.9781 13.7811 50.7825 12.4596 50.1532C11.2011 49.524 9.94255 48.643 9.69084 48.2025C9.43913 47.8249 9.31327 46.1888 9.43913 44.6156C9.50206 43.0424 9.87962 41.2805 10.1943 40.6512C10.5089 40.0848 11.8304 39.1409 13.0889 38.5746C14.4104 38.0082 16.5499 36.6238 17.8714 35.5541C19.1929 34.4843 21.1436 31.9043 22.1505 29.8277C23.6607 26.8071 24.1642 24.8564 24.4788 20.2627C24.7305 17.0534 25.2339 14.2216 25.5486 13.907Z" fill="#F6F9FA"/>
<path d="M36.189 60.2743C39.0528 62.0044 42.4101 63 46 63C56.4934 63 65 54.4934 65 44C65 40.4101 64.0044 37.0528 62.2743 34.189L57.0264 39.4368C57.6088 40.8425 57.9302 42.3837 57.9302 44C57.9302 50.5889 52.5889 55.9302 46 55.9302C44.3837 55.9302 42.8425 55.6088 41.4368 55.0264L36.189 60.2743Z" fill="#3FD4EB"/>
<path d="M52.4823 33.9828C50.6159 32.7726 48.39 32.0698 46 32.0698C39.4111 32.0698 34.0698 37.4111 34.0698 44C34.0698 46.39 34.7726 48.6159 35.9828 50.4823L30.9136 55.5515C28.4589 52.3505 27 48.3456 27 44C27 33.5066 35.5066 25 46 25C50.3456 25 54.3505 26.4589 57.5515 28.9136L52.4823 33.9828Z" fill="#3FD4EB"/>
</svg>
