<svg width="92" height="79" viewBox="0 0 92 79" fill="none" xmlns="http://www.w3.org/2000/svg">
<path d="M18.3555 1.92211C19.7187 1.13159 21.309 0.341079 21.9338 0.171684C22.5585 0.00228788 33.6908 -0.0541774 70.2116 0.0587531L72.881 1.47038C74.8689 2.48676 76.0617 3.67253 77.1976 5.70528C78.8379 8.46049 78.8447 8.696 79.1813 20.2401L79.1855 20.3862C79.4127 27.5573 79.3559 34.1638 79.0152 37.0435C78.6744 39.6974 77.8792 43.2547 77.2544 44.9486C76.6297 46.6426 75.4369 49.0706 74.6418 50.3128C73.7898 51.5551 71.8587 53.9266 70.2683 55.6206C68.678 57.258 66.0653 59.4602 64.5318 60.4766C62.9415 61.4929 60.3856 62.8481 58.8521 63.4692C57.2617 64.1468 54.9899 64.9373 53.7403 65.2196C52.4908 65.5584 51.1276 66.3489 50.73 66.9701C50.1621 67.93 50.2189 68.2688 51.014 69.0028C51.6388 69.5675 53.2859 69.9627 55.4442 70.0192C57.3185 70.1321 59.42 70.4709 60.1016 70.8662C60.84 71.205 61.6919 72.1084 61.9759 72.8989C62.2599 73.6894 62.3735 74.9881 62.0895 75.7786C61.8623 76.6256 61.1808 77.5855 60.556 77.9243C59.7608 78.3196 54.9899 78.489 45.7887 78.4325C34.6564 78.3196 31.9301 78.1502 30.851 77.4161C30.0558 76.908 29.6014 76.0045 29.6014 75.0446C29.6014 74.1412 29.999 72.8989 30.4534 72.2213C30.9078 71.4873 32.3277 70.6403 33.6908 70.3015C35.054 69.9627 36.8715 69.8498 37.837 70.0192C39.0866 70.3015 39.8817 70.0757 42.0968 68.0994L40.7905 66.6877C40.1089 65.8972 39.0866 65.2761 38.5186 65.2761C38.0074 65.2761 35.9627 64.655 33.9748 63.9209C32.0437 63.1869 29.2038 61.7753 27.6135 60.7024C26.08 59.6296 23.9217 57.8792 22.8425 56.8063C21.7634 55.7335 19.8891 53.5878 18.7531 52.0068C17.5604 50.4822 15.9132 47.546 15.1181 45.5133C14.3229 43.4805 13.4142 39.6974 13.1302 37.0435C12.8462 34.3896 12.5622 27.275 12.5622 10.2225L14.2093 6.83458C15.4589 4.35011 16.5948 3.05141 18.3555 1.92211Z" fill="#5E6673"/>
<path d="M84.2973 10.5048C84.8653 9.77077 85.8876 9.03673 86.5692 8.7544C87.2508 8.52854 88.0459 8.30268 88.3867 8.24621C88.7275 8.24621 89.5795 8.86733 90.3746 9.71431C91.681 11.0695 91.7946 11.6341 91.965 17.45C92.0786 20.9509 91.9082 24.7341 91.5674 25.9198C90.9994 27.7267 90.6586 28.0655 88.8411 28.3478C87.6484 28.5737 86.2852 28.4608 85.8308 28.1784C85.3765 27.8961 84.5245 26.7668 83.9565 25.694C83.1046 24.1129 82.9342 22.7013 83.1046 17.7888C83.2182 12.9328 83.5021 11.5212 84.2973 10.5048Z" fill="#5E6673"/>
<path d="M0.00997808 18.1276C-0.0468193 12.6505 0.123573 11.0695 0.918736 10.0531C1.54351 9.14966 2.39547 8.81087 3.929 8.81087C5.06495 8.81087 6.54168 9.14966 7.16645 9.60138C7.96161 10.166 8.41599 11.3518 8.64318 13.7233C8.87037 15.5302 8.87037 19.0311 8.69998 21.5155C8.47279 24.5647 8.01841 26.428 7.33684 27.275C6.59848 28.1784 5.68972 28.5737 4.32658 28.5737C2.67946 28.5737 2.11148 28.2349 1.20272 26.7668C0.237168 25.1858 0.0667755 23.8306 0.00997808 18.1276Z" fill="#5E6673"/>
<path d="M21.9906 10.5613C22.5586 9.65784 23.4673 8.7544 24.1489 8.64147C24.8304 8.47207 33.5204 8.35914 43.5168 8.35914C53.5131 8.41561 63.3391 8.52854 65.327 8.7544C68.6212 9.03673 69.1324 9.26259 70.0412 10.7871C70.9499 12.2552 71.0635 13.8927 71.0635 23.3224C71.0635 31.2276 70.8363 35.1237 70.2116 37.4387C69.7572 39.2456 69.3596 41.109 69.3596 41.5607C69.3596 42.0124 68.2237 44.1016 66.8037 46.1909C65.0998 48.7318 62.9415 50.9904 60.4424 52.8538C58.2841 54.4348 56.1258 55.677 55.6146 55.677C55.0467 55.677 53.7403 56.1287 52.7748 56.6369C51.4116 57.371 49.5373 57.5968 46.0727 57.5968C42.324 57.5968 40.5065 57.3145 37.8371 56.2417C35.9627 55.5076 33.5204 54.3218 32.4413 53.6443C31.3621 52.9667 29.5446 51.4421 28.4087 50.2563C27.2727 49.0141 25.5688 46.9249 24.6033 45.5133C23.5809 44.1016 22.7857 42.5771 22.7857 42.1254C22.7857 41.6736 22.3882 39.7538 21.877 37.8905C21.2522 35.3495 21.025 31.7358 21.025 23.3224C21.0818 14.0621 21.2522 11.9165 21.9906 10.5613Z" fill="#F7FAFA"/>
<path d="M35.2812 20.2899C37.9317 22.7511 45.8455 26.1968 56.2962 20.2899" stroke="#3FD4EB" stroke-width="8" stroke-linecap="round"/>
</svg>
