<svg width="92" height="73" viewBox="0 0 92 73" fill="none" xmlns="http://www.w3.org/2000/svg">
<path d="M32.015 1.68576C33.0818 1.09311 35.5709 0.441194 37.5266 0.2634C39.4824 0.02634 44.757 -0.0921899 49.2611 0.0856049C54.5949 0.2634 57.9138 0.618989 58.9805 1.15237C59.9288 1.62649 62.655 2.75253 65.0848 3.6415C67.5147 4.58974 71.1298 6.42695 73.0856 7.79004C75.0413 9.09387 78.3602 11.9979 80.4937 14.1907C82.6272 16.4427 85.2349 19.5838 86.3609 21.3024C87.4277 22.9619 89.1464 26.0436 90.0946 28.1772C91.5762 31.3182 91.9318 32.8591 91.9911 36.4743C92.0504 40.5635 91.8726 41.2747 89.6205 45.6603C88.3167 48.268 86.0646 52.0017 84.6422 53.9574C83.1606 55.9132 80.6715 58.8171 79.0121 60.358C77.4119 61.8989 74.3301 64.3288 72.1966 65.7511C70.0631 67.1735 65.796 69.3663 57.0841 72.9222H46.0608C36.1635 72.9222 34.8004 72.8037 32.1335 71.6776C30.5334 70.9664 27.7479 69.7811 25.97 69.0107C24.192 68.2403 21.6436 66.8772 20.3398 66.0475C19.036 65.1585 16.2505 62.9064 14.117 61.0099C11.9834 59.1135 9.43506 56.5058 8.48682 55.2612C7.53858 53.9574 6.11622 51.9424 5.40504 50.7571C4.6346 49.5718 3.2715 47.0234 2.32327 45.0677C1.37503 43.1119 0.426788 39.9116 0.189729 37.9559C-0.225126 34.7556 -0.0473312 33.9259 1.61209 29.9551C2.67886 27.5253 3.74562 25.0954 4.04195 24.6213C4.33827 24.1472 5.04945 22.9026 5.58284 21.9544C6.11622 21.0061 8.19049 18.3392 10.2055 16.0871C12.2205 13.8351 15.7171 10.6348 17.9692 8.91608C20.2805 7.19739 23.6586 5.12312 25.5551 4.29341C27.3923 3.40444 29.2295 2.69326 29.5259 2.69326C29.8222 2.69326 31.0075 2.21914 32.015 1.68576Z" fill="#5F707C"/>
<path d="M30.7112 11.7608C32.4891 10.9311 35.156 9.92358 36.6377 9.50872C38.1193 9.09387 41.6752 8.67902 44.6384 8.67902C47.5424 8.67902 51.6909 8.91608 53.8245 9.27167C56.1358 9.62725 59.751 10.9311 63.0105 12.5312C65.9145 14.0129 69.4112 16.1464 70.715 17.2724C72.0188 18.3985 73.9746 20.1764 75.0413 21.2432C76.1081 22.3099 78.2416 25.2732 79.7825 27.8809C82.2717 32.0887 82.568 33.0369 82.568 36.1779C82.568 39.0819 82.1531 40.5635 80.4937 43.8824C79.1899 46.5493 76.9378 49.6311 74.2709 52.4165C72.0188 54.7871 68.5815 57.6318 66.685 58.7579C64.8478 59.8839 62.5957 60.9507 61.6475 61.1285C60.7585 61.3655 59.6324 61.8397 59.1583 62.2545C58.6842 62.6694 56.3136 63.3213 53.943 63.6769C51.6317 64.0325 47.6017 64.3288 45.1125 64.3288C42.5642 64.3288 38.8897 63.9139 36.934 63.4398C34.9782 62.9657 31.1853 61.4248 28.4591 60.0024C25.7329 58.6393 22.2955 56.4465 20.8139 55.1427C19.3323 53.8389 16.9617 51.2905 15.5986 49.5125C14.2355 47.7346 12.5168 45.0677 11.7464 43.5861C10.9759 42.1044 10.087 39.9709 9.67212 38.8449C9.07947 37.1262 9.13873 36.1779 9.96844 33.511C10.5018 31.7331 11.9242 28.7698 13.1687 26.9919C14.354 25.2139 16.0135 22.7841 16.8432 21.658C17.6729 20.532 18.9174 19.3467 19.6286 19.1096C20.3398 18.8133 21.1102 18.2207 21.4066 17.7465C21.6436 17.2724 23.066 16.0871 24.6069 15.0796C26.207 14.0721 28.9332 12.5312 30.7112 11.7608Z" fill="#EEF6F8"/>
<path d="M36.189 52.2743C39.0528 54.0044 42.4101 55 46 55C56.4934 55 65 46.4934 65 36C65 32.4101 64.0044 29.0528 62.2743 26.189L57.0264 31.4368C57.6088 32.8425 57.9302 34.3837 57.9302 36C57.9302 42.5889 52.5889 47.9302 46 47.9302C44.3837 47.9302 42.8425 47.6088 41.4368 47.0264L36.189 52.2743Z" fill="#3FD4EB"/>
<path d="M52.4823 25.9828C50.6159 24.7726 48.39 24.0698 46 24.0698C39.4111 24.0698 34.0698 29.4111 34.0698 36C34.0698 38.39 34.7726 40.6159 35.9828 42.4823L30.9136 47.5515C28.4589 44.3505 27 40.3456 27 36C27 25.5066 35.5066 17 46 17C50.3456 17 54.3505 18.4589 57.5515 20.9136L52.4823 25.9828Z" fill="#3FD4EB"/>
</svg>
