<svg width="92" height="89" viewBox="0 0 92 89" fill="none" xmlns="http://www.w3.org/2000/svg">
<path d="M25.5733 5.08394C27.6657 3.99109 32.0829 2.42987 35.2602 1.57121C38.4375 0.712541 43.0872 0.0099961 45.4895 0.0099961C47.9694 -0.0680645 51.8441 0.322239 54.014 0.790602C56.2613 1.25897 59.8261 2.19569 61.996 2.82018C64.0883 3.52272 67.8081 5.31812 70.1329 6.80127C72.4578 8.36248 76.4875 11.7191 79.0448 14.3731C81.6022 16.9491 84.392 20.3838 85.1669 21.867C86.0194 23.3501 87.2593 25.9261 88.0343 27.6435C88.7317 29.3608 89.8941 32.8735 90.6691 35.4495C91.8315 39.5087 92.064 43.2556 91.9865 62.3804C91.9865 84.0032 91.909 84.7057 90.3591 86.1889C89.0417 87.3598 87.6468 87.7501 84.237 87.6721C81.8347 87.6721 78.9673 87.4379 77.8824 87.1256C76.7975 86.8914 75.0926 85.3302 74.0077 83.691C72.2253 81.0369 72.0703 80.1002 72.0703 72.138C72.0703 65.1906 72.3803 63.083 73.3877 61.3656C74.1627 60.1947 75.7126 58.8677 76.875 58.3993C78.1149 57.931 79.6648 56.9942 80.4398 56.2917C81.1372 55.5891 81.9122 53.7157 82.1446 52.2325C82.3771 50.7494 81.9122 45.8316 80.9822 41.3041C79.7423 34.9031 78.8124 32.0929 76.565 28.4241C74.9376 25.8481 72.3803 22.5695 70.9079 21.2425C69.4355 19.8374 66.4132 17.4175 64.3208 15.9344C61.686 14.0609 58.6637 12.8119 55.0214 12.0313C52.0766 11.4068 47.7369 10.8604 45.4895 10.8604C43.3197 10.8604 39.8324 11.2507 37.74 11.7191C35.7252 12.2655 33.0128 13.0461 31.7729 13.5145C30.533 13.9828 26.8907 16.4027 23.7909 18.8226C20.7686 21.3205 17.6688 24.521 16.9714 25.9261C16.3514 27.2531 14.9566 29.8291 14.0266 31.5464L14.0266 31.5465C13.0192 33.2638 11.8567 36.7765 11.3918 39.3525C10.9268 41.9285 10.3068 46.2999 9.99685 49.1101C9.53188 53.8718 9.60937 54.3402 11.5467 56.3698C12.6317 57.5407 14.1041 58.4774 14.724 58.4774C15.344 58.4774 16.8164 59.8044 17.9788 61.3656C20.0712 64.0197 20.1487 64.6442 20.1487 72.6064C20.1487 79.866 19.9162 81.2711 18.5213 83.2226C17.6688 84.3935 15.8865 85.8767 14.6465 86.5011C13.4066 87.1256 10.4618 87.8282 8.13697 87.9843C4.72719 88.2185 3.48727 87.9843 0 85.1741V61.4437C0 40.6015 0.15499 37.401 1.39491 34.6689C2.16986 32.9516 2.71232 31.0001 2.71232 30.3756C2.71232 29.7511 4.10723 26.7848 5.88962 23.7404C7.672 20.6961 11.0818 16.2466 13.4841 13.7487C15.8865 11.2507 18.6763 8.75278 19.7612 8.1283C20.8461 7.50381 23.4035 6.09872 25.5733 5.08394Z" fill="#575E6C"/>
<path d="M61 75H30" stroke="#3FD4EB" stroke-width="8" stroke-linecap="round"/>
</svg>
