<svg width="92" height="106" viewBox="0 0 92 106" fill="none" xmlns="http://www.w3.org/2000/svg">
<path d="M34.9251 2.3033C36.19 2.09391 37.8765 1.46574 38.6495 0.907361C39.4928 0.348985 42.0226 0 45.1145 0C48.4173 0 51.5795 0.488579 53.8985 1.32614C55.9364 2.09391 58.4662 2.86168 59.5203 3.07107C60.7149 3.35026 63.7366 5.72336 66.8988 8.93402C70.5529 12.4937 72.8719 15.4949 73.8557 17.7982C74.699 19.7526 75.7531 22.4049 76.3152 23.731C76.8774 25.1269 77.2288 28.4074 77.2288 31.4087C77.1585 35.2475 76.5963 37.8998 75.1909 41.5292C74.2071 44.1815 72.5908 47.462 71.607 48.7183C70.6935 49.9049 69.9205 51.58 69.9205 52.3478C69.9205 53.2551 70.9043 54.3021 72.8016 55.3491C74.4179 56.1866 76.3855 57.2336 77.2288 57.7221C78.0018 58.2107 80.6721 60.514 83.1316 62.9569C85.5911 65.3998 88.3317 68.8897 89.2452 70.844C90.1588 72.7285 91.2129 75.7298 91.6345 77.4747C92.0561 79.3592 92.1264 82.9887 91.775 86.5483C91.4237 90.5268 90.7912 93.179 89.8777 94.5052C89.175 95.6219 87.2776 97.5065 85.7317 98.7628C84.1857 100.019 80.391 101.904 71.6773 105.045H45.2551C21.714 105.045 18.622 104.905 17.4977 103.928C16.7247 103.3 14.7571 102.462 13.0003 102.113C11.1732 101.764 8.57317 100.438 6.81637 99.1118C5.12984 97.7857 2.95142 95.4126 1.89734 93.9468C0.140544 91.3643 0 90.7362 0 83.8262C0.0702718 76.7767 0.140544 76.2184 2.45951 71.6118C3.86495 68.9595 6.81637 64.8415 9.13534 62.3986C11.4543 59.9557 13.8436 57.9315 14.4057 58.0013C14.9679 58.0013 15.9517 57.443 16.5139 56.8148C17.0761 56.1866 18.622 55.2793 19.8167 54.7209C21.3626 54.0927 22.1356 53.2551 22.1356 52.3478C22.1356 51.58 21.3626 49.7653 20.3788 48.3694C19.395 46.9036 18.1301 44.4607 17.6382 42.9252C17.1463 41.3896 16.1625 38.3884 15.4598 36.2945C14.6868 33.8516 14.4057 31.4785 14.6868 29.6637C14.8976 28.1282 15.5301 25.1269 16.1625 23.033C16.7247 20.9391 17.8491 17.9378 18.622 16.4023C19.395 14.8668 21.6437 12.0051 23.6816 10.1206C25.7195 8.16625 28.6006 5.72336 30.0061 4.6764C31.4818 3.62945 33.7305 2.58249 34.9251 2.3033Z" fill="#525661"/>
<path d="M31.2007 17.2399C32.6061 15.7043 35.2765 13.75 37.2441 12.8427C40.2658 11.4467 41.6009 11.2373 46.7308 11.4467C51.439 11.5863 53.2661 12.0051 55.5148 13.2614C57.0607 14.1688 59.5203 15.9835 60.996 17.3795C62.4014 18.7754 63.8068 20.8693 64.0177 21.9861C64.2987 23.1028 64.9312 24.7082 65.4231 25.4759C65.9853 26.2437 66.4069 28.198 66.4069 29.8731C66.4069 31.4785 65.7745 34.8985 65.0015 37.5508C64.1582 40.1333 62.823 42.995 61.9798 43.9721C61.1365 45.0191 59.0284 46.6942 57.2716 47.811C55.5148 48.9277 53.4066 50.4633 52.4931 51.231C51.439 52.2082 50.9471 53.4645 50.9471 55.0001C50.9471 56.8148 51.439 57.5826 53.6174 58.9087C55.0229 59.8859 57.4824 60.863 59.0284 61.1422C60.5743 61.4214 64.2285 62.8173 67.1096 64.2133C69.9908 65.679 73.5044 68.0521 74.9098 69.5877C76.3152 71.0534 78.072 73.3567 78.845 74.6828C79.618 76.009 80.5315 78.0331 80.8126 79.2197C81.0937 80.4062 81.4451 82.5699 81.5154 84.1054C81.6559 86.339 81.164 87.4557 79.4072 89.6892C77.7909 91.7831 76.4558 92.6207 74.4179 92.9697C72.9422 93.2489 65.7042 93.877 58.3256 94.2958C48.2768 94.8542 41.6712 94.8542 31.6223 94.226C24.2438 93.7374 17.6382 93.1093 16.8652 92.8301C16.0923 92.5509 14.5463 91.3643 13.4219 90.3174C12.2976 89.2006 11.0327 87.3859 10.5408 86.1994C9.83806 84.4544 9.83806 83.4773 10.8921 80.2666C11.5246 78.1727 12.8597 75.1714 13.8436 73.6359C14.7571 72.1004 16.795 69.797 18.341 68.5407C19.8167 67.2844 23.26 65.1904 26.0006 63.7945C28.7412 62.3986 32.3953 61.0026 34.2224 60.6536C36.4711 60.2349 38.2982 59.3275 39.7036 57.9316C40.8982 56.745 41.8118 55.2095 41.8118 54.4417C41.8118 53.6739 40.8982 52.1384 39.7036 50.9518C38.5792 49.7653 37.1738 48.8579 36.7522 48.8579C36.2603 48.7881 34.7143 47.811 33.3089 46.5546C31.9034 45.2983 29.7953 42.646 28.6006 40.6917C27.3358 38.6676 26.0006 35.3173 25.579 33.363C24.806 30.0825 24.8762 29.3148 26.2114 26.5229C26.9844 24.778 27.8277 22.6142 28.1087 21.6371C28.3898 20.6599 29.7953 18.7056 31.2007 17.2399Z" fill="#F4F6F8"/>
<path d="M46 69V85" stroke="#3FD4EB" stroke-width="8" stroke-linecap="round"/>
</svg>
