<svg width="35" height="34" viewBox="0 0 35 34" fill="none" xmlns="http://www.w3.org/2000/svg">
<path d="M14.75 0.852026C15 0.552026 15.65 0.202026 16.2 0.0520259C16.7 -0.0479741 17.6 0.00202592 18.2 0.152026C18.75 0.352026 20.2 1.70203 21.35 3.20203C22.5 4.70203 23.9 6.35203 24.4 6.90203C24.95 7.45203 27.05 8.45203 29.05 9.10203C31.1 9.75203 33.15 10.652 33.65 11.102C34.15 11.552 34.55 12.552 34.5 13.402C34.5 14.352 33.6 16.252 32 18.652C29.5 22.352 29.45 22.452 29.5 26.252C29.5 28.402 29.3 30.652 29.05 31.252C28.8 31.902 28 32.752 27.3 33.152C26.05 33.852 25.65 33.802 23.1 32.952C21.55 32.452 19.6 31.802 18.75 31.502C17.55 31.102 16.45 31.252 13 32.352C10.65 33.052 8.45 33.652 8.15 33.652C7.8 33.652 6.95 33.102 6.25 32.402C5.1 31.252 5 30.802 5 22.152L2.5 18.502C0.75 16.002 0 14.402 0 13.302C0.05 12.152 0.4 11.452 1.4 10.802C2.15 10.252 3.75 9.55203 5 9.20203C6.25 8.85203 7.75 8.35203 8.4 8.10203C9 7.85203 10.55 6.25203 11.85 4.50203C13.15 2.80203 14.45 1.15203 14.75 0.852026Z" fill="#64707B"/>
<path d="M11.85 9.55203C12.45 8.90203 13.85 7.20203 15 5.80203V5.75203C16.1 4.35203 17.15 3.15203 17.25 3.15203C17.4 3.15203 18.7 4.75203 20.1 6.65203C22.3 9.60203 23.15 10.352 25.25 11.102C26.6 11.652 28.4 12.252 29.2 12.502C30 12.702 30.75 13.252 30.9 13.652C31.05 14.052 30.95 14.652 30.7 14.952C30.45 15.252 29.4 16.702 28.4 18.202C26.6 20.802 26.55 21.052 26.5 25.252C26.5 28.252 26.3 29.752 25.85 29.952C25.55 30.102 23.75 29.752 21.85 29.202C20 28.602 17.9 28.152 17.15 28.152C16.35 28.152 14.4 28.602 12.75 29.152C11.1 29.702 9.35 30.152 8.9 30.152C8.1 30.152 8 29.602 8 20.902L5.75 17.652C4.5 15.852 3.5 14.052 3.5 13.652C3.5 13.152 4.75 12.502 7.1 11.802C9.1 11.202 11.25 10.152 11.85 9.55203Z" fill="#F9FAFA"/>
<path d="M16.1277 15.6593C16.2806 15.4907 16.6374 15.05 16.9304 14.687V14.6741C17.2107 14.3111 17.4783 14 17.5038 14C17.542 14 17.8732 14.4148 18.23 14.9074C18.7906 15.6722 19.0072 15.8667 19.5423 16.0611C19.8863 16.2037 20.345 16.3593 20.5488 16.4241C20.7527 16.4759 20.9438 16.6185 20.982 16.7222C21.0203 16.8259 20.9948 16.9815 20.9311 17.0593C20.8674 17.137 20.5998 17.513 20.345 17.9019C19.8863 18.5759 19.8736 18.6407 19.8608 19.7296C19.8608 20.5074 19.8099 20.8963 19.6952 20.9481C19.6188 20.987 19.1601 20.8963 18.6759 20.7537C18.2045 20.5981 17.6694 20.4815 17.4783 20.4815C17.2744 20.4815 16.7775 20.5981 16.3571 20.7407C15.9366 20.8833 15.4907 21 15.376 21C15.1722 21 15.1467 20.8574 15.1467 18.6019L14.5733 17.7593C14.2548 17.2926 14 16.8259 14 16.7222C14 16.5926 14.3185 16.4241 14.9173 16.2426C15.427 16.087 15.9748 15.8148 16.1277 15.6593Z" fill="#3FD4EB"/>
</svg>
