<svg width="81" height="112" viewBox="0 0 81 112" fill="none" xmlns="http://www.w3.org/2000/svg">
<path d="M20.3327 108.241H62.2263" stroke="#3BC4E1" stroke-width="6" stroke-linecap="round"/>
<path d="M11.8465 69.0462C-3.94882 53.2509 -3.94882 27.6417 11.8465 11.8465C27.6417 -3.94882 53.2509 -3.94882 69.0462 11.8465C84.8415 27.6417 84.8415 53.2509 69.0462 69.0462L45.3026 92.7898C42.6206 95.4719 38.2721 95.4719 35.5901 92.7898L11.8465 69.0462Z" fill="url(#paint0_linear_28_140)"/>
<path d="M54.6718 40.9361C54.6718 48.5221 48.5221 54.6718 40.9361 54.6718C33.3502 54.6718 27.2005 48.5221 27.2005 40.9361C27.2005 33.3502 33.3502 27.2005 40.9361 27.2005C48.5221 27.2005 54.6718 33.3502 54.6718 40.9361Z" fill="white"/>
<defs>
<linearGradient id="paint0_linear_28_140" x1="40.4463" y1="0" x2="40.4463" y2="94.8013" gradientUnits="userSpaceOnUse">
<stop stop-color="#95F1DC"/>
<stop offset="1" stop-color="#24BFE9"/>
</linearGradient>
</defs>
</svg>
