<svg width="100" height="92" viewBox="0 0 100 92" fill="none" xmlns="http://www.w3.org/2000/svg">
<g clip-path="url(#clip0_10_29)">
<rect width="100" height="92" fill="white"/>
<rect x="8" y="8" width="84" height="84" rx="19" fill="url(#paint0_radial_10_29)"/>
<path fill-rule="evenodd" clip-rule="evenodd" d="M24.8021 0C19.3214 0 14.222 2.80535 11.2879 7.43463L3.14047 20.2895C2.59938 21.1432 2.16477 22.0604 1.85532 23.017C0.669697 25.308 0 27.9091 0 30.6667C0 39.8714 7.46192 47.3333 16.6667 47.3333C25.6481 47.3333 32.9703 40.229 33.3202 31.3333H33.3464C33.6964 40.229 41.0185 47.3333 50 47.3333C58.9815 47.3333 66.3036 40.229 66.6536 31.3333H66.6798C67.0297 40.229 74.3519 47.3333 83.3333 47.3333C92.5381 47.3333 100 39.8714 100 30.6667C100 26.0285 98.1054 21.8329 95.048 18.8115C94.8573 18.4518 94.6487 18.1005 94.4228 17.7593L87.4118 7.16821C84.4487 2.69199 79.4383 0 74.0702 0H24.8021Z" fill="url(#paint1_radial_10_29)"/>
<rect x="41.3333" y="54.6667" width="17.3333" height="24" rx="8.66667" fill="url(#paint2_linear_10_29)"/>
</g>
<defs>
<radialGradient id="paint0_radial_10_29" cx="0" cy="0" r="1" gradientUnits="userSpaceOnUse" gradientTransform="translate(22.6667 32.6667) rotate(45) scale(98.0521)">
<stop stop-color="#FA5999"/>
<stop offset="1" stop-color="#FFB9CC"/>
</radialGradient>
<radialGradient id="paint1_radial_10_29" cx="0" cy="0" r="1" gradientUnits="userSpaceOnUse" gradientTransform="translate(18.6667 9.33333) rotate(26.565) scale(73.0449 154.32)">
<stop stop-color="#FDB7C1"/>
<stop offset="1" stop-color="#F85999"/>
</radialGradient>
<linearGradient id="paint2_linear_10_29" x1="50" y1="54.6667" x2="49.3333" y2="72" gradientUnits="userSpaceOnUse">
<stop stop-color="white"/>
<stop offset="1" stop-color="#FE9ABC"/>
</linearGradient>
<clipPath id="clip0_10_29">
<rect width="100" height="92" fill="white"/>
</clipPath>
</defs>
</svg>
