<svg width="81" height="102" viewBox="0 0 81 102" fill="none" xmlns="http://www.w3.org/2000/svg">
<path d="M12.569 27.931C12.569 12.5051 25.0741 0 40.5 0C55.9259 0 68.431 12.5052 68.431 27.931V51.6724C68.431 67.0983 55.9259 79.6034 40.5 79.6034C25.0741 79.6034 12.569 67.0983 12.569 51.6724V27.931Z" fill="url(#paint0_linear_28_161)"/>
<path d="M34.9265 90.3955C15.1963 87.6799 0 70.7525 0 50.2759H5.58621C5.58621 69.5582 21.2176 85.1897 40.5 85.1897C59.7823 85.1897 75.4138 69.5582 75.4138 50.2759H81C81 70.7525 65.8037 87.6799 46.0735 90.3955C46.0819 90.5212 46.0862 90.648 46.0862 90.7759V96.3621C46.0862 99.4472 43.5852 101.948 40.5 101.948C37.4148 101.948 34.9138 99.4472 34.9138 96.3621V90.7759C34.9138 90.648 34.9181 90.5212 34.9265 90.3955Z" fill="url(#paint1_linear_28_161)"/>
<path d="M18.1552 28.2242H15.6552V33.2242H18.1552V28.2242ZM25.1379 33.2242C26.5186 33.2242 27.6379 32.1049 27.6379 30.7242C27.6379 29.3434 26.5186 28.2242 25.1379 28.2242V33.2242ZM18.1552 33.2242H25.1379V28.2242H18.1552V33.2242Z" fill="white"/>
<path d="M18.1552 39.3965H15.6552V44.3965H18.1552V39.3965ZM25.1379 44.3965C26.5186 44.3965 27.6379 43.2773 27.6379 41.8965C27.6379 40.5158 26.5186 39.3965 25.1379 39.3965V44.3965ZM18.1552 44.3965H25.1379V39.3965H18.1552V44.3965Z" fill="white"/>
<path d="M62.8448 28.2242H65.3448V33.2242H62.8448V28.2242ZM55.8621 33.2242C54.4813 33.2242 53.3621 32.1049 53.3621 30.7242C53.3621 29.3434 54.4813 28.2242 55.8621 28.2242V33.2242ZM62.8448 33.2242H55.8621V28.2242H62.8448V33.2242Z" fill="white"/>
<path d="M62.8448 39.3965H65.3448V44.3965H62.8448V39.3965ZM55.8621 44.3965C54.4813 44.3965 53.3621 43.2773 53.3621 41.8965C53.3621 40.5158 54.4813 39.3965 55.8621 39.3965V44.3965ZM62.8448 44.3965H55.8621V39.3965H62.8448V44.3965Z" fill="white"/>
<defs>
<linearGradient id="paint0_linear_28_161" x1="31.4224" y1="3.49138" x2="51.6724" y2="81.6983" gradientUnits="userSpaceOnUse">
<stop stop-color="#D9ABE5"/>
<stop offset="1" stop-color="#AF6CF5"/>
</linearGradient>
<linearGradient id="paint1_linear_28_161" x1="31.4224" y1="3.49138" x2="51.6724" y2="81.6983" gradientUnits="userSpaceOnUse">
<stop stop-color="#D9ABE5"/>
<stop offset="1" stop-color="#AF6CF5"/>
</linearGradient>
</defs>
</svg>
